<svg width="147" height="28" viewBox="0 0 147 28" fill="none" xmlns="http://www.w3.org/2000/svg">
<path d="M1.74361 23V5.54545H8.62997C9.95384 5.54545 11.0817 5.7983 12.0135 6.30398C12.9453 6.80398 13.6555 7.5 14.1442 8.39204C14.6385 9.27841 14.8857 10.3011 14.8857 11.4602C14.8857 12.6193 14.6357 13.642 14.1357 14.5284C13.6357 15.4148 12.9112 16.1051 11.9624 16.5994C11.0192 17.0937 9.87713 17.3409 8.53622 17.3409H4.14702V14.3835H7.93963C8.64986 14.3835 9.23509 14.2614 9.69531 14.017C10.1612 13.767 10.5078 13.4233 10.7351 12.9858C10.968 12.5426 11.0845 12.0341 11.0845 11.4602C11.0845 10.8807 10.968 10.375 10.7351 9.94318C10.5078 9.50568 10.1612 9.16761 9.69531 8.92898C9.2294 8.68466 8.63849 8.5625 7.92259 8.5625H5.43395V23H1.74361ZM20.5959 23.2472C19.7607 23.2472 19.0163 23.1023 18.3629 22.8125C17.7095 22.517 17.1925 22.0824 16.8118 21.5085C16.4368 20.929 16.2493 20.2074 16.2493 19.3438C16.2493 18.6165 16.3828 18.0057 16.6499 17.5114C16.9169 17.017 17.2805 16.6193 17.7408 16.3182C18.201 16.017 18.7237 15.7898 19.3089 15.6364C19.8999 15.483 20.5192 15.375 21.1669 15.3125C21.9283 15.233 22.5419 15.1591 23.0078 15.0909C23.4737 15.017 23.8118 14.9091 24.022 14.767C24.2322 14.625 24.3374 14.4148 24.3374 14.1364V14.0852C24.3374 13.5455 24.1669 13.1278 23.826 12.8324C23.4908 12.5369 23.0135 12.3892 22.3942 12.3892C21.7408 12.3892 21.2209 12.5341 20.8345 12.8239C20.4482 13.108 20.1925 13.4659 20.0675 13.8977L16.7095 13.625C16.88 12.8295 17.2152 12.142 17.7152 11.5625C18.2152 10.9773 18.8601 10.5284 19.6499 10.2159C20.4453 9.89773 21.3658 9.73864 22.4112 9.73864C23.1385 9.73864 23.8345 9.82386 24.4993 9.99432C25.1697 10.1648 25.7635 10.429 26.2805 10.7869C26.8033 11.1449 27.2152 11.6051 27.5163 12.1676C27.8175 12.7244 27.968 13.392 27.968 14.1705V23H24.5249V21.1847H24.4226C24.2124 21.5938 23.9311 21.9545 23.5788 22.267C23.2266 22.5739 22.8033 22.8153 22.3089 22.9915C21.8146 23.1619 21.2436 23.2472 20.5959 23.2472ZM21.6357 20.7415C22.1697 20.7415 22.6413 20.6364 23.0504 20.4261C23.4595 20.2102 23.7805 19.9205 24.0135 19.5568C24.2464 19.1932 24.3629 18.7812 24.3629 18.321V16.9318C24.2493 17.0057 24.093 17.0739 23.8942 17.1364C23.701 17.1932 23.4822 17.2472 23.2379 17.2983C22.9936 17.3437 22.7493 17.3864 22.505 17.4261C22.2607 17.4602 22.0391 17.4915 21.8402 17.5199C21.4141 17.5824 21.0419 17.6818 20.7237 17.8182C20.4055 17.9545 20.1584 18.1392 19.9822 18.3722C19.8061 18.5994 19.718 18.8835 19.718 19.2244C19.718 19.7188 19.897 20.0966 20.255 20.358C20.6186 20.6136 21.0788 20.7415 21.6357 20.7415ZM41.6768 13.642L38.353 13.8466C38.2962 13.5625 38.174 13.3068 37.9865 13.0795C37.799 12.8466 37.5518 12.6619 37.245 12.5256C36.9439 12.3835 36.5831 12.3125 36.1626 12.3125C35.6001 12.3125 35.1257 12.4318 34.7393 12.6705C34.353 12.9034 34.1598 13.2159 34.1598 13.608C34.1598 13.9205 34.2848 14.1847 34.5348 14.4006C34.7848 14.6165 35.2138 14.7898 35.8217 14.9205L38.1911 15.3977C39.4638 15.6591 40.4126 16.0795 41.0376 16.6591C41.6626 17.2386 41.9751 18 41.9751 18.9432C41.9751 19.8011 41.7223 20.554 41.2166 21.2017C40.7166 21.8494 40.0291 22.3551 39.1541 22.7188C38.2848 23.0767 37.282 23.2557 36.1456 23.2557C34.4126 23.2557 33.032 22.8949 32.0036 22.1733C30.9808 21.446 30.3814 20.4574 30.2053 19.2074L33.7763 19.0199C33.8842 19.5483 34.1456 19.9517 34.5604 20.2301C34.9751 20.5028 35.5064 20.6392 36.1541 20.6392C36.7905 20.6392 37.3018 20.517 37.6882 20.2727C38.0803 20.0227 38.2791 19.7017 38.2848 19.3097C38.2791 18.9801 38.1399 18.7102 37.8672 18.5C37.5945 18.2841 37.174 18.1193 36.6058 18.0057L34.3388 17.554C33.0604 17.2983 32.1087 16.8551 31.4837 16.2244C30.8643 15.5937 30.5547 14.7898 30.5547 13.8125C30.5547 12.9716 30.782 12.2472 31.2365 11.6392C31.6967 11.0312 32.3416 10.5625 33.1712 10.233C34.0064 9.90341 34.9837 9.73864 36.103 9.73864C37.7564 9.73864 39.0575 10.0881 40.0064 10.7869C40.9609 11.4858 41.5178 12.4375 41.6768 13.642ZM55.1534 13.642L51.8295 13.8466C51.7727 13.5625 51.6506 13.3068 51.4631 13.0795C51.2756 12.8466 51.0284 12.6619 50.7216 12.5256C50.4205 12.3835 50.0597 12.3125 49.6392 12.3125C49.0767 12.3125 48.6023 12.4318 48.2159 12.6705C47.8295 12.9034 47.6364 13.2159 47.6364 13.608C47.6364 13.9205 47.7614 14.1847 48.0114 14.4006C48.2614 14.6165 48.6903 14.7898 49.2983 14.9205L51.6676 15.3977C52.9403 15.6591 53.8892 16.0795 54.5142 16.6591C55.1392 17.2386 55.4517 18 55.4517 18.9432C55.4517 19.8011 55.1989 20.554 54.6932 21.2017C54.1932 21.8494 53.5057 22.3551 52.6307 22.7188C51.7614 23.0767 50.7585 23.2557 49.6222 23.2557C47.8892 23.2557 46.5085 22.8949 45.4801 22.1733C44.4574 21.446 43.858 20.4574 43.6818 19.2074L47.2528 19.0199C47.3608 19.5483 47.6222 19.9517 48.0369 20.2301C48.4517 20.5028 48.983 20.6392 49.6307 20.6392C50.267 20.6392 50.7784 20.517 51.1648 20.2727C51.5568 20.0227 51.7557 19.7017 51.7614 19.3097C51.7557 18.9801 51.6165 18.7102 51.3438 18.5C51.071 18.2841 50.6506 18.1193 50.0824 18.0057L47.8153 17.554C46.5369 17.2983 45.5852 16.8551 44.9602 16.2244C44.3409 15.5937 44.0312 14.7898 44.0312 13.8125C44.0312 12.9716 44.2585 12.2472 44.7131 11.6392C45.1733 11.0312 45.8182 10.5625 46.6477 10.233C47.483 9.90341 48.4602 9.73864 49.5795 9.73864C51.233 9.73864 52.5341 10.0881 53.483 10.7869C54.4375 11.4858 54.9943 12.4375 55.1534 13.642ZM63.7038 23.2557C62.3572 23.2557 61.1982 22.983 60.2266 22.4375C59.2607 21.8864 58.5163 21.108 57.9936 20.1023C57.4709 19.0909 57.2095 17.8949 57.2095 16.5142C57.2095 15.1676 57.4709 13.9858 57.9936 12.9688C58.5163 11.9517 59.2521 11.1591 60.201 10.5909C61.1555 10.0227 62.2749 9.73864 63.5589 9.73864C64.4226 9.73864 65.2266 9.87784 65.9709 10.1562C66.7209 10.429 67.3743 10.8409 67.9311 11.392C68.4936 11.9432 68.9311 12.6364 69.2436 13.4716C69.5561 14.3011 69.7124 15.2727 69.7124 16.3864V17.3835H58.6584V15.1335H66.2947C66.2947 14.6108 66.1811 14.1477 65.9538 13.7443C65.7266 13.3409 65.4112 13.0256 65.0078 12.7983C64.6101 12.5653 64.147 12.4489 63.6186 12.4489C63.0675 12.4489 62.5788 12.5767 62.1527 12.8324C61.7322 13.0824 61.4027 13.4205 61.1641 13.8466C60.9254 14.267 60.8033 14.7358 60.7976 15.2528V17.392C60.7976 18.0398 60.9169 18.5994 61.1555 19.071C61.3999 19.5426 61.7436 19.9062 62.1868 20.1619C62.63 20.4176 63.1555 20.5455 63.7635 20.5455C64.1669 20.5455 64.5362 20.4886 64.8714 20.375C65.2067 20.2614 65.4936 20.0909 65.7322 19.8636C65.9709 19.6364 66.1527 19.358 66.2777 19.0284L69.6357 19.25C69.4652 20.0568 69.1158 20.7614 68.5874 21.3636C68.0646 21.9602 67.3885 22.4261 66.5589 22.7614C65.7351 23.0909 64.7834 23.2557 63.7038 23.2557Z" fill="white"/>
<path d="M75.1584 23H71.2038L77.2294 5.54545H81.9851L88.0021 23H84.0476L79.6754 9.53409H79.5391L75.1584 23ZM74.9112 16.1392H84.2521V19.0199H74.9112V16.1392ZM93.6655 15.4318V23H90.0348V9.90909H93.495V12.2188H93.6484C93.9382 11.4574 94.424 10.8551 95.1058 10.4119C95.7876 9.96307 96.6143 9.73864 97.5859 9.73864C98.495 9.73864 99.2876 9.9375 99.9638 10.3352C100.64 10.733 101.165 11.3011 101.54 12.0398C101.915 12.7727 102.103 13.6477 102.103 14.6648V23H98.4723V15.3125C98.478 14.5114 98.2734 13.8864 97.8587 13.4375C97.4439 12.983 96.8729 12.7557 96.1456 12.7557C95.657 12.7557 95.2251 12.8608 94.8501 13.071C94.4808 13.2812 94.1911 13.5881 93.9808 13.9915C93.7763 14.3892 93.6712 14.8693 93.6655 15.4318ZM109.788 23.2131C108.794 23.2131 107.893 22.9574 107.087 22.446C106.286 21.929 105.649 21.1705 105.178 20.1705C104.712 19.1648 104.479 17.9318 104.479 16.4716C104.479 14.9716 104.72 13.7244 105.203 12.7301C105.686 11.7301 106.328 10.983 107.129 10.4886C107.936 9.98864 108.82 9.73864 109.78 9.73864C110.513 9.73864 111.124 9.86364 111.612 10.1136C112.107 10.358 112.504 10.6648 112.805 11.0341C113.112 11.3977 113.345 11.7557 113.504 12.108H113.615V5.54545H117.237V23H113.658V20.9034H113.504C113.334 21.267 113.092 21.6278 112.78 21.9858C112.473 22.3381 112.072 22.6307 111.578 22.8636C111.089 23.0966 110.493 23.2131 109.788 23.2131ZM110.939 20.3239C111.524 20.3239 112.018 20.1648 112.422 19.8466C112.831 19.5227 113.143 19.071 113.359 18.4915C113.581 17.9119 113.692 17.233 113.692 16.4545C113.692 15.6761 113.584 15 113.368 14.4261C113.152 13.8523 112.839 13.4091 112.43 13.0966C112.021 12.7841 111.524 12.6278 110.939 12.6278C110.342 12.6278 109.839 12.7898 109.43 13.1136C109.021 13.4375 108.712 13.8864 108.501 14.4602C108.291 15.0341 108.186 15.6989 108.186 16.4545C108.186 17.2159 108.291 17.8892 108.501 18.4744C108.717 19.054 109.027 19.5085 109.43 19.8381C109.839 20.1619 110.342 20.3239 110.939 20.3239Z" fill="#FFF0B9"/>
<path d="M0.226562 27.7727H70.6328V29.4091H0.226562V27.7727Z" fill="white"/>
<path d="M70.6328 27.7727H118.763V29.4091H70.6328V27.7727Z" fill="#FFF0B9"/>
<path d="M140.762 6.78367C139.615 6.45438 138.338 6.85469 137.247 7.88322C136.733 8.36715 136.241 9.05013 136 9.61381C135.521 10.7268 135.55 11.8286 136.074 12.6135C136.252 12.879 136.464 13.0851 136.701 13.2198C136.89 13.3272 137.076 13.3879 137.31 13.4198C138.723 13.6102 140.188 12.8814 141.212 11.4782C141.391 11.2307 141.676 10.7122 141.814 10.3811C142.019 9.88826 142.092 9.60465 142.118 9.19927C142.16 8.56327 142.03 8.00198 141.735 7.55429C141.557 7.28157 141.38 7.11001 141.103 6.93979C140.946 6.84496 140.902 6.82374 140.762 6.78367Z" fill="white"/>
<path d="M134.225 3.15157C133.59 2.92908 132.816 3.069 132.131 3.5309C131.49 3.96304 130.928 4.76315 130.579 5.74033C130.134 6.98608 130.169 8.26938 130.679 9.28716C130.791 9.51132 131.006 9.82968 131.171 10.013C131.288 10.1428 131.321 10.1693 131.477 10.2669C131.684 10.3957 131.847 10.4617 132.065 10.5073C132.404 10.5782 132.721 10.5671 133.066 10.4717C133.75 10.2827 134.395 9.77936 134.898 9.03951C135.105 8.73452 135.346 8.2436 135.488 7.8326C136.004 6.3468 135.876 4.87675 135.145 3.89535C134.859 3.51293 134.556 3.26781 134.225 3.15157Z" fill="white"/>
<path d="M142.01 14.3863C140.989 14.0105 139.799 14.189 138.734 14.8813C138.228 15.2092 137.873 15.5384 137.45 16.07C137.298 16.2622 137.248 16.3381 137.111 16.5784C136.945 16.8724 136.879 17.0276 136.805 17.2995C136.606 18.0291 136.694 18.7651 137.04 19.2656C137.228 19.5389 137.439 19.7202 137.72 19.8477C138.4 20.1591 139.144 20.1944 139.96 19.9548C140.86 19.6897 141.71 19.0997 142.32 18.3196C142.474 18.1247 142.733 17.7205 142.82 17.5439C143.268 16.6337 143.234 15.5943 142.737 14.9388C142.545 14.6857 142.286 14.4888 142.01 14.3863Z" fill="white"/>
<path d="M127.174 6.45778C126.501 6.21223 125.74 6.34848 125.227 6.80842C125.045 6.97064 124.826 7.22549 124.653 7.47333C124.028 8.37199 123.756 9.62464 123.935 10.7743C123.975 11.0267 124.092 11.4556 124.189 11.6899C124.409 12.2356 124.765 12.7381 125.168 13.0808C125.275 13.1716 125.561 13.3299 125.69 13.3694C126.26 13.5469 126.888 13.4365 127.421 13.0642C127.748 12.8354 128.052 12.4787 128.319 12.008C128.483 11.7183 128.559 11.552 128.66 11.2546C129.054 10.1102 128.974 8.78529 128.45 7.73471C128.307 7.44635 128.073 7.09279 127.923 6.93869C127.735 6.74621 127.432 6.55208 127.174 6.45778Z" fill="white"/>
<path d="M132.55 14.0648C132.027 13.8409 131.466 13.6966 130.868 13.6354C129.952 13.5438 128.94 13.6815 128.152 14.0077C126.45 14.7125 124.99 15.6926 123.995 16.7968C123.934 16.8649 123.838 16.9654 123.782 17.0214C123.493 17.3111 123.287 17.71 123.216 18.1204C123.103 18.781 123.29 19.4493 123.719 19.928C123.975 20.2136 124.449 20.4808 125.039 20.6695C125.422 20.7937 125.726 20.8576 126.608 21.0013C127.836 21.1995 128.158 21.287 128.877 21.6106C129.198 21.7555 129.254 21.7853 129.456 21.9203C129.972 22.2639 130.331 22.6225 130.959 23.4194C131.514 24.1253 131.828 24.5143 131.914 24.6003C132.767 25.4658 133.979 25.6842 134.76 25.1132C135.103 24.8612 135.432 24.321 135.601 23.7273C135.764 23.1494 135.863 22.1161 135.825 21.3603C135.719 19.2299 135.501 17.9458 135.058 16.8201C134.637 15.7553 134.159 15.0958 133.41 14.553C133.2 14.4001 132.793 14.1692 132.55 14.0648Z" fill="white"/>
</svg>
