<svg width="78" height="372" viewBox="0 0 78 372" fill="none" xmlns="http://www.w3.org/2000/svg">
<path d="M38.0214 0.418923C32.9092 2.00017 28.8597 7.80767 27.8545 15.0239C27.0503 20.7452 29.4053 27.0127 33.0241 28.7952C35.0345 29.8014 37.8204 29.7152 40.0606 28.6227C42.3295 27.5014 45.0004 24.7989 46.3216 22.2689C50.3137 14.5927 49.7967 6.14017 45.0866 1.88517C43.0187 0.0164232 40.7786 -0.443577 38.0214 0.418923Z" fill="#F59300" fill-opacity="0.12"/>
<path d="M62.0315 14.0465C57.465 15.5127 52.9272 19.6527 50.5147 24.569C49.3946 26.8402 48.9926 28.6802 48.9926 31.469C48.9926 33.8265 49.0787 34.2577 49.9403 35.9827C51.6061 39.404 53.5016 40.4102 57.8097 40.1515C59.9924 40.0365 60.5955 39.864 62.8357 38.8002C64.9323 37.794 65.7939 37.1327 67.8043 35.0915C70.3317 32.5615 71.6241 30.5202 73.0027 26.869C73.8643 24.5977 73.9217 20.9465 73.1463 18.6752C72.3995 16.5477 70.1881 14.3052 68.3213 13.8452C66.4257 13.3565 63.9271 13.4427 62.0315 14.0465Z" fill="#F59300" fill-opacity="0.12"/>
<path d="M10.5649 14.1902C7.57795 15.254 4.87825 18.9627 3.61456 23.7065C3.06888 25.7765 2.98271 30.319 3.47096 32.3315C4.41873 36.184 7.37691 40.2952 9.96173 41.2727C12.604 42.279 16.1366 41.1577 18.4055 38.599C21.019 35.6377 22.4263 31.6127 22.4263 27.1565C22.4263 19.5377 18.4342 13.759 13.2358 13.8165C12.3742 13.8165 11.168 13.989 10.5649 14.1902Z" fill="#F59300" fill-opacity="0.12"/>
<path d="M25.7292 41.9915C21.7658 42.5952 17.027 44.6365 12.2881 47.8277C7.00359 51.364 2.12115 56.3665 1.31699 59.0115C0.0820153 63.1515 1.71907 67.0902 5.4527 68.959C7.40568 69.9365 9.76074 70.5402 13.9539 71.144C18.2619 71.7765 20.5308 72.294 22.6848 73.1565C26.1887 74.594 27.8258 75.974 32.0764 81.0627C33.8857 83.2477 35.8674 85.3752 36.4706 85.7777C39.8595 88.1352 44.1963 88.3077 46.5226 86.1515C49.3659 83.5065 50.6296 77.6702 49.9978 69.8502C49.3372 61.3402 48.332 56.999 45.9195 52.0252C44.1389 48.3452 41.8412 45.8727 38.5959 44.1765C35.0058 42.279 29.6639 41.3877 25.7292 41.9915Z" fill="#F59300" fill-opacity="0.12"/>
<path d="M66.7129 43.2277C63.6686 43.9752 60.9402 45.5852 58.2979 48.259C55.0238 51.5652 53.7027 54.124 53.5016 57.4877C53.3293 60.5065 53.7888 62.0302 55.3397 63.784C56.2875 64.8477 56.9768 65.279 58.2405 65.7102C64.76 67.8377 73.1176 63.4965 76.7937 56.079C77.9426 53.7502 78 53.549 78 50.904C78 48.374 77.9138 48.0002 77.1384 46.5915C76.6501 45.729 75.8173 44.7515 75.2428 44.349C73.0888 42.9402 69.786 42.509 66.7129 43.2277Z" fill="#F59300" fill-opacity="0.12"/>
<path d="M38.8197 94.8575C36.3785 95.375 35.1148 96.1225 33.0757 98.1925C31.0078 100.263 29.2271 103.483 28.3081 106.818C27.5614 109.463 27.5614 114.724 28.3081 116.88C29.3707 120.071 31.295 122.659 33.2193 123.521C35.0861 124.384 37.7283 124.24 39.9111 123.205C47.206 119.755 51.1981 107.651 47.5794 100.004C45.5977 95.7488 42.6682 94.0525 38.8197 94.8575Z" fill="#F59300" fill-opacity="0.12"/>
<path d="M63.5191 108.255C57.2868 109.376 50.8535 115.845 49.2739 122.544C48.6707 125.131 48.8431 128.323 49.7334 130.335C50.6811 132.52 52.7203 134.274 54.8169 134.705C61.6236 136.143 69.6652 130.364 72.8532 121.739C74.3179 117.858 73.8584 113.545 71.7044 110.728C70.2109 108.773 66.6209 107.68 63.5191 108.255Z" fill="#F59300" fill-opacity="0.12"/>
<path d="M11.2483 108.514C5.67653 110.325 1.88546 118.835 3.32147 126.224C4.15436 130.393 6.6243 134.245 9.41016 135.596C10.5015 136.114 11.0472 136.2 12.6268 136.085C14.9244 135.913 16.4179 135.223 18.0262 133.498C20.7547 130.68 22.162 127.144 22.363 122.63C22.5928 118.116 21.4439 114.235 18.9453 111.073C17.4231 109.146 13.4023 107.795 11.2483 108.514Z" fill="#F59300" fill-opacity="0.12"/>
<path d="M24.1724 136.833C18.4571 138.04 10.7313 142.698 5.36063 148.131C2.02909 151.495 1.13876 153.019 0.966437 155.635C0.736675 158.999 1.97165 161.5 4.64263 163.11C6.82537 164.404 9.03682 165.036 14.0054 165.755C23.4544 167.078 26.0679 168.515 32.0417 175.645C35.5169 179.785 36.3498 180.533 38.2453 181.395C43.5873 183.81 47.7517 181.51 49.4749 175.185C50.1068 172.828 50.2504 168.084 49.8483 163.311C49.1877 155.491 48.1825 151.294 45.8562 146.521C43.616 141.921 39.8249 138.73 34.8563 137.235C32.3577 136.488 26.8147 136.286 24.1724 136.833Z" fill="#F59300" fill-opacity="0.12"/>
<path d="M66.2475 137.896C62.1118 139.276 58.7516 141.663 56.2816 144.998C51.5428 151.409 52.6342 158.74 58.608 160.408C63.4617 161.759 68.7175 160.005 73.1691 155.549C75.0072 153.709 75.7539 152.674 76.7592 150.661C77.9941 148.189 78.0228 148.045 77.9941 145.515C77.9654 141.519 76.6443 139.276 73.6861 138.155C71.9629 137.523 67.8559 137.379 66.2475 137.896Z" fill="#F59300" fill-opacity="0.12"/>
<path d="M38.3615 189.617C34.8576 190.624 32.0718 193.067 30.1188 196.891C26.7585 203.389 26.7298 210.404 30.0613 215.377C31.7558 217.936 33.2206 218.712 36.2075 218.712C38.1604 218.712 38.7348 218.569 40.0847 217.879C47.1786 214.17 51.0558 202.267 47.5807 194.821C45.5703 190.537 42.0664 188.554 38.3615 189.617Z" fill="#F59300" fill-opacity="0.12"/>
<path d="M62.5726 203.159C56.7137 204.654 50.8835 210.72 49.2752 216.987C48.5859 219.69 48.5572 221.587 49.1603 223.715C49.7347 225.756 50.8261 227.366 52.4057 228.487C53.497 229.264 53.8991 229.35 56.1968 229.436C58.1784 229.522 59.1837 229.407 60.7058 228.947C65.7032 227.424 70.2697 222.824 72.596 216.987C73.3715 215.032 73.5151 214.314 73.5151 212.1C73.5438 208.937 72.9694 207.069 71.3898 205.257C70.7579 204.539 69.6953 203.762 69.0347 203.475C67.4264 202.842 64.4107 202.67 62.5726 203.159Z" fill="#F59300" fill-opacity="0.12"/>
<path d="M10.6177 203.417C6.28096 205.056 2.97813 211.18 2.97813 217.562C2.97813 222.076 4.38543 225.871 7.08513 228.602C8.86578 230.414 10.5028 231.075 12.8005 230.845C14.9258 230.672 16.5628 229.752 18.3722 227.74C20.9283 224.894 22.2781 220.984 22.2781 216.412C22.2781 211.956 20.957 208.161 18.4871 205.487C16.5915 203.389 13.0877 202.497 10.6177 203.417Z" fill="#F59300" fill-opacity="0.12"/>
<path d="M23.1398 231.794C20.3252 232.512 14.2078 235.617 10.7901 238.061C7.48723 240.419 2.89199 244.99 1.7719 247.002C-0.295959 250.826 0.967731 255.685 4.6152 257.956C6.33842 259.02 8.83708 259.681 14.2365 260.544C23.8865 262.067 26.0118 263.246 31.8707 270.29C36.4372 275.752 38.304 276.989 42.0377 276.96C48.0115 276.902 50.7686 270.577 49.8496 258.991C48.5572 242.345 43.9907 234.41 34.2545 231.88C30.9517 231.017 26.3277 230.989 23.1398 231.794Z" fill="#F59300" fill-opacity="0.12"/>
<path d="M67.4551 232.397C62.8024 233.202 58.2646 236.422 55.3064 241.022C53.9278 243.15 53.296 245.249 53.296 247.664C53.296 252.436 55.8521 255.081 60.9068 255.541C66.0478 256.03 72.4811 252.292 75.8126 246.916C78.7995 242.115 78.7134 237.141 75.6403 234.18C73.9745 232.57 70.5856 231.822 67.4551 232.397Z" fill="#F59300" fill-opacity="0.12"/>
<path d="M37.1932 284.503C33.9766 285.768 31.6215 288.183 29.726 292.15C26.4231 299.079 26.8827 306.468 30.9035 311.068C31.5353 311.787 32.598 312.563 33.2586 312.85C40.4673 315.754 48.6526 306.784 48.7675 295.888C48.7962 291.892 47.9633 289.247 45.8093 286.544C43.885 284.158 40.2663 283.295 37.1932 284.503Z" fill="#F59300" fill-opacity="0.12"/>
<path d="M11.2876 297.785C9.53563 298.188 8.64531 298.792 7.12314 300.517C4.42343 303.535 2.9587 307.532 2.9587 311.988C2.92998 316.358 4.19367 319.98 6.66361 322.74C8.47299 324.753 9.85156 325.414 12.0917 325.414C20.1908 325.357 25.1594 312.218 20.5355 303.104C20.0472 302.127 19.2718 300.862 18.7836 300.287C17.2614 298.36 13.7575 297.182 11.2876 297.785Z" fill="#F59300" fill-opacity="0.12"/>
<path d="M61.3757 298.044C57.7857 299.367 54.3105 302.213 51.8693 305.807C46.355 313.943 48.4803 323.603 55.8614 324.149C62.4384 324.638 69.5323 319.262 72.5766 311.499C74.7019 306.065 73.2659 300.229 69.2738 298.102C67.8378 297.354 63.3287 297.325 61.3757 298.044Z" fill="#F59300" fill-opacity="0.12"/>
<path d="M25.102 325.932C21.1674 326.65 16.7444 328.634 11.8046 331.912C8.41557 334.154 2.58536 339.76 1.60887 341.744C0.804706 343.354 0.517504 346.373 1.03447 347.954C2.41304 352.18 5.39994 353.762 14.2745 355.084C23.4937 356.464 25.9349 357.787 31.8226 364.802C35.3552 368.999 36.0732 369.689 38.0549 370.667C40.094 371.673 43.3681 371.817 44.9477 370.954C49.543 368.482 51.0077 360.633 49.2558 348.069C48.1644 340.077 45.9529 334.7 42.248 330.934C40.0653 328.72 37.3656 327.168 34.2063 326.363C32.1672 325.817 26.9976 325.558 25.102 325.932Z" fill="#F59300" fill-opacity="0.12"/>
<path d="M66.0284 327.225C61.8352 328.375 57.7282 331.595 55.0573 335.85C52.415 340.019 52.6735 345.539 55.6317 348.213C58.5899 350.858 64.736 350.657 69.6184 347.724C73.0649 345.625 76.54 341.255 77.5452 337.748C78.9238 332.975 77.0857 328.548 73.151 327.283C71.3129 326.679 68.125 326.679 66.0284 327.225Z" fill="#F59300" fill-opacity="0.12"/>
</svg>
