<svg width="1280" height="199" viewBox="0 0 1280 199" fill="none" xmlns="http://www.w3.org/2000/svg">
<g clip-path="url(#clip0_101_84)">
<path fill-rule="evenodd" clip-rule="evenodd" d="M-3 69L32.2825 61.7778C68.6342 54.5556 139.199 40.1111 210.833 50.9444C282.467 61.7778 353.032 97.8889 424.667 123.167C496.301 148.444 566.866 162.889 638.5 148.444C710.134 134 780.699 90.6667 852.333 94.2778C923.967 97.8889 994.532 148.444 1066.17 141.222C1137.8 134 1208.37 69 1244.72 36.5L1280 4V199H1244.72C1208.37 199 1137.8 199 1066.17 199C994.532 199 923.967 199 852.333 199C780.699 199 710.134 199 638.5 199C566.866 199 496.301 199 424.667 199C353.032 199 282.467 199 210.833 199C139.199 199 68.6342 199 32.2825 199H-3V69Z" fill="#FFC700" fill-opacity="0.13"/>
<path d="M-3 71.6083L23.7292 82.2243C50.4583 92.8403 103.917 114.072 157.375 103.456C210.833 92.8403 264.292 50.3764 317.75 50.3764C371.208 50.3764 424.667 92.8403 478.125 99.9397C531.583 106.774 585.042 78.9068 638.5 57.4758C691.958 36.4429 745.417 21.8459 798.875 32.661C852.333 43.0779 905.792 78.9068 959.25 85.7408C1012.71 92.8403 1066.17 71.6083 1119.62 75.1249C1173.08 78.9068 1226.54 106.774 1253.27 121.172L1280 135.304V199H1253.27C1226.54 199 1173.08 199 1119.62 199C1066.17 199 1012.71 199 959.25 199C905.792 199 852.333 199 798.875 199C745.417 199 691.958 199 638.5 199C585.042 199 531.583 199 478.125 199C424.667 199 371.208 199 317.75 199C264.292 199 210.833 199 157.375 199C103.917 199 50.4583 199 23.7292 199H-3V71.6083Z" fill="#FFC700" fill-opacity="0.13"/>
<path d="M-2 97.836L24.7083 106.266C51.4167 114.697 104.833 131.557 158.25 123.127C211.667 114.697 265.083 80.9753 318.5 80.9753C371.917 80.9753 425.333 114.697 478.75 120.334C532.167 125.761 585.583 103.632 639 86.6131C692.417 69.9105 745.833 58.3188 799.25 66.9072C852.667 75.1795 906.083 103.632 959.5 109.059C1012.92 114.697 1066.33 97.836 1119.75 100.629C1173.17 103.632 1226.58 125.761 1253.29 137.195L1280 148.418V199H1253.29C1226.58 199 1173.17 199 1119.75 199C1066.33 199 1012.92 199 959.5 199C906.083 199 852.667 199 799.25 199C745.833 199 692.417 199 639 199C585.583 199 532.167 199 478.75 199C425.333 199 371.917 199 318.5 199C265.083 199 211.667 199 158.25 199C104.833 199 51.4167 199 24.7083 199H-2V97.836Z" fill="#FFC700" fill-opacity="0.13"/>
</g>
<defs>
<clipPath id="clip0_101_84">
<rect width="1285" height="199" fill="white" transform="translate(-2.5)"/>
</clipPath>
</defs>
</svg>
